<svg width="2048" height="2048" viewBox="0 0 2048 2048" fill="none" xmlns="http://www.w3.org/2000/svg">
<rect y="976.727" width="1967.06" height="583.672" rx="291.836" transform="rotate(-13 0 976.727)" fill="#680031"/>
<path d="M401.391 1339.74L345.387 1097.16L456.872 1071.42L448.982 1037.25L337.498 1062.99C323.616 1013.09 347.187 989.942 397.607 978.301L433.462 970.024L426.219 938.651L395.967 945.635C324.258 962.191 287.631 1005.46 298.282 1072.04L253.464 1082.39L261.354 1116.56L305.611 1106.35L361.615 1348.92L401.391 1339.74ZM537.757 1025.61L541.679 1024.7L589.518 1070.89L611.021 1046.46L557.924 1005.61L558.828 1001.86L617.564 970.006L600.496 942.082L545.984 979.451L542.105 977.986L530.463 912.224L498.53 919.596L516.895 983.806L514.051 986.823L448.675 977.133L445.575 1009.71L511.769 1012.72L514.226 1015.7L484.97 1075.56L514.448 1088.23L537.757 1025.61ZM721.187 983.259L725.108 982.353L772.948 1028.55L794.45 1004.11L741.353 963.261L742.258 959.511L800.993 927.658L783.925 899.734L729.413 937.103L725.535 935.638L713.893 869.876L681.96 877.248L700.325 941.458L697.481 944.475L632.104 934.785L629.005 967.365L695.199 970.376L697.656 973.349L668.4 1033.21L697.878 1045.88L721.187 983.259ZM904.616 940.911L908.538 940.005L956.377 986.199L977.88 961.762L924.783 920.913L925.687 917.163L984.423 885.31L967.355 857.386L912.843 894.755L908.964 893.29L897.322 827.528L865.39 834.9L883.754 899.11L880.91 902.127L815.534 892.437L812.434 925.017L878.628 928.028L881.085 931.001L851.829 990.863L881.307 1003.53L904.616 940.911ZM1053.31 860.556L1038.69 797.251L998.916 806.434L1013.53 869.739L1053.31 860.556ZM1125.35 1172.6L1061.46 895.85L1021.68 905.033L1085.57 1181.78L1125.35 1172.6ZM1215.23 1151.85L1184.31 1017.96C1167.89 946.809 1193.74 897.764 1260.97 882.244C1324.27 867.629 1359.35 894.344 1372.55 951.487L1408.5 1107.23L1448.28 1098.05L1411.03 936.702C1395.9 871.156 1344.44 824.618 1266.57 842.596C1197.66 858.504 1168.92 912.936 1170.26 962.194L1167.46 962.84L1147.41 876.006L1111.56 884.283L1175.45 1161.03L1215.23 1151.85ZM1609.79 1037.15C1673.66 1022.41 1707.31 981.596 1708.69 936.432L1711.49 935.785L1728.17 1008.05C1744.08 1076.96 1721.11 1105.28 1649.41 1121.83C1587.78 1136.06 1550.89 1124.51 1539.64 1075.77L1499.86 1084.96C1514.74 1149.38 1580.54 1173.73 1655.61 1156.39C1739.09 1137.12 1788.51 1087.95 1767.43 996.63L1709.62 746.21L1673.76 754.488L1690.19 825.636L1687.39 826.283C1664.8 779.57 1612.53 762.725 1554.26 776.176C1469.11 795.835 1429.55 862.205 1447.01 937.835C1464.47 1013.47 1527.44 1056.17 1609.79 1037.15ZM1486.79 928.652C1470.49 858.064 1509.19 823.757 1571.37 809.4C1635.24 794.656 1684.2 817.578 1696.74 871.92L1698.94 881.443C1712.52 940.267 1680.64 983.624 1612.29 999.403C1552.35 1013.24 1503.09 999.241 1486.79 928.652Z" fill="#C294FF"/>
<rect x="518.914" y="1152" width="1317.18" height="583.672" rx="291.836" transform="rotate(9.31491 518.914 1152)" fill="#E5FC54"/>
<path d="M611.83 1653.17L636.771 1501.11C647.101 1438.13 677.929 1406.48 734.666 1415.79C783.461 1423.79 799.504 1450.31 791.686 1497.97L788.15 1519.53L828.434 1526.14L832.994 1498.34C841.556 1446.14 821.004 1393.83 756.323 1383.22C697.883 1373.63 659.968 1405.87 644.105 1449.29L641.268 1448.83L653.832 1372.23L617.519 1366.28L571.546 1646.56L611.83 1653.17ZM964.522 1716.85C1042.82 1729.69 1107.3 1698.9 1116.89 1640.46L1117.54 1636.49L1077.25 1629.88L1076.6 1633.85C1069.9 1674.7 1035.26 1694.07 969.446 1683.28C895.119 1671.09 869.014 1627.77 877.074 1564.42L1123.88 1604.9C1126.8 1597.8 1129.33 1589.48 1131 1579.26C1144.68 1495.86 1094.06 1438.61 1011.79 1425.12C921.576 1410.32 854.881 1461.73 840.921 1546.83C826.31 1635.91 874.309 1702.05 964.522 1716.85ZM1005.73 1458.5C1071.55 1469.3 1103.88 1506.65 1094.2 1565.65C1093.73 1568.49 1093.27 1571.33 1092.8 1574.16L881.169 1539.45C894.057 1478.64 933.107 1446.59 1005.73 1458.5ZM1218.81 1758.55C1284.05 1769.26 1338.26 1747.85 1363.18 1698.92L1366.01 1699.38L1353.64 1774.84L1389.95 1780.8L1418.71 1605.48C1428.85 1543.64 1400.54 1488.88 1315.43 1474.93C1229.19 1460.78 1172.49 1501 1162.81 1560.01L1162.44 1562.28L1202.72 1568.89L1203.09 1566.62C1211.19 1517.26 1246.5 1500.91 1306.64 1510.77C1367.92 1520.82 1388.21 1546.29 1379.28 1600.76L1375.74 1622.32L1239.99 1615.2C1186.86 1612.31 1145.59 1625.94 1138.05 1671.9C1130.6 1717.29 1163.77 1749.53 1218.81 1758.55ZM1178.8 1675.67C1183.54 1646.73 1205.64 1639.87 1248.28 1642.78L1371.37 1648.99L1371 1651.26C1359.92 1718.78 1301.09 1740.01 1233 1728.84C1190.45 1721.86 1174.14 1704.03 1178.8 1675.67ZM1479.43 1795.48L1541.78 1415.33L1501.5 1408.73L1439.15 1788.87L1479.43 1795.48ZM1585.26 1684.65C1595.4 1622.81 1619.7 1513.76 1626.86 1470.07L1633.38 1430.36L1583.45 1422.17L1576.93 1461.88C1569.77 1505.57 1558.05 1616.1 1547.81 1678.51L1585.26 1684.65ZM1568.75 1810.13L1581.32 1733.53L1535.93 1726.09L1523.36 1802.68L1568.75 1810.13Z" fill="#014051"/>
<rect x="484.998" y="106" width="1397.33" height="583.672" rx="291.836" transform="rotate(2.45475 484.998 106)" fill="#C294FF"/>
<path d="M754.685 561.57L902.416 283.613L858.185 281.716L733.432 520.375L729.985 520.227L625.54 271.743L581.309 269.847L704.709 559.428L754.685 561.57ZM1048.03 579.901C1127.3 583.299 1187.64 545.027 1190.18 485.86L1190.35 481.839L1149.57 480.091L1149.4 484.112C1147.62 525.471 1115.54 548.841 1048.91 545.985C973.66 542.759 942.567 502.868 943.003 439.008L1192.88 449.72C1194.92 442.326 1196.44 433.759 1196.89 423.419C1200.51 338.978 1143.41 288.189 1060.12 284.618C968.781 280.703 908.702 339.704 905.009 425.869C901.142 516.055 956.697 575.986 1048.03 579.901ZM1058.09 318.485C1124.72 321.342 1161.28 354.561 1158.72 414.302C1158.6 417.174 1158.47 420.046 1158.35 422.918L944.087 413.733C949.618 351.817 984.561 315.333 1058.09 318.485ZM1267.81 583.568L1274.41 429.62C1277.14 365.858 1303.97 330.752 1361.41 333.215C1410.81 335.333 1429.91 359.746 1427.84 407.999L1426.91 429.827L1467.69 431.576L1468.9 403.428C1471.16 350.581 1444.51 301.097 1379.02 298.29C1319.86 295.753 1286.06 332.287 1275.5 377.297L1272.63 377.174L1275.95 299.626L1239.19 298.05L1227.03 581.82L1267.81 583.568ZM1523.99 692.383C1571.09 694.403 1598.13 681.175 1620.68 638.404L1788.5 321.598L1743.69 319.678L1657.78 484.613L1624.33 553.388L1620.88 553.24L1592.27 482.38L1516.22 309.926L1471.41 308.005L1600 597.234L1584.99 625.364C1573.06 648.448 1561.78 656.597 1533.06 655.365L1489.98 653.518L1488.38 690.857L1523.99 692.383Z" fill="#014051"/>
</svg>
